# xmcd
#
# Track frame offsets:
#	150
#	22580
#	51836
#	70063
#	91931
#	97557
#	116756
#	133546
#	155025
#	177544
#	196266
#	217034
#	244576
#
# Disc length: 3529 seconds
#
# Revision: 1
# Processed by: cddbd v1.5.1PL0 Copyright (c) Steve Scherf et al.
# Submitted via: audiograbber 1.83.01
#
DISCID=a70dc70d
DTITLE=Tim Gaze and Rob Grosser - Sydney Basin Blues Live
DYEAR=2004
DGENRE=Blues
TTITLE0=Sophisticated Mama
TTITLE1=24 Hours
TTITLE2=Rockin' Pneumonia
TTITLE3=Bo Diddley's Money
TTITLE4=Morphine
TTITLE5=Fore Day Creep
TTITLE6=King Bee
TTITLE7=You Can Have My Husband
TTITLE8=Dust My Broom
TTITLE9=Mr Wattle Bird
TTITLE10=Cops and Robbers
TTITLE11=Automobile
TTITLE12=Lonesome Traveler Blues
EXTD=
EXTT0=
EXTT1=
EXTT2=
EXTT3=
EXTT4=
EXTT5=
EXTT6=
EXTT7=
EXTT8=
EXTT9=
EXTT10=
EXTT11=
EXTT12=
PLAYORDER=
